<mxfile host="app.diagrams.net" agent="Mozilla/5.0 (Macintosh; Intel Mac OS X 10_15_7) AppleWebKit/537.36 (KHTML, like Gecko) Chrome/132.0.0.0 Safari/537.36" version="26.0.6">
  <diagram id="C5RBs43oDa-KdzZeNtuy" name="Page-1">
    <mxGraphModel dx="2429" dy="4267" grid="1" gridSize="10" guides="1" tooltips="1" connect="1" arrows="1" fold="1" page="1" pageScale="1" pageWidth="1169" pageHeight="1654" background="#FFFFFF" math="0" shadow="0">
      <root>
        <mxCell id="WIyWlLk6GJQsqaUBKTNV-0" />
        <mxCell id="WIyWlLk6GJQsqaUBKTNV-1" parent="WIyWlLk6GJQsqaUBKTNV-0" />
        <mxCell id="PLHjshaNbv-pAc6cqL0V-2" value="" style="endArrow=none;html=1;edgeStyle=orthogonalEdgeStyle;shadow=0;" parent="WIyWlLk6GJQsqaUBKTNV-1" source="zkfFHV4jXpPFQw0GAbJ--0" target="zkfFHV4jXpPFQw0GAbJ--6" edge="1">
          <mxGeometry relative="1" as="geometry">
            <mxPoint x="-1206" y="-717" as="sourcePoint" />
            <mxPoint x="-1046" y="-717" as="targetPoint" />
            <Array as="points">
              <mxPoint x="-99" y="-1512" />
            </Array>
          </mxGeometry>
        </mxCell>
        <mxCell id="PLHjshaNbv-pAc6cqL0V-3" value="&lt;div&gt;0..1&lt;/div&gt;" style="resizable=0;html=1;align=left;verticalAlign=bottom;labelBackgroundColor=#ffffff;fontSize=10;shadow=0;" parent="PLHjshaNbv-pAc6cqL0V-2" connectable="0" vertex="1">
          <mxGeometry x="-1" relative="1" as="geometry">
            <mxPoint x="-30" y="-8" as="offset" />
          </mxGeometry>
        </mxCell>
        <mxCell id="PLHjshaNbv-pAc6cqL0V-6" value="" style="endArrow=none;html=1;shadow=0;" parent="WIyWlLk6GJQsqaUBKTNV-1" source="zkfFHV4jXpPFQw0GAbJ--6" target="zkfFHV4jXpPFQw0GAbJ--17" edge="1">
          <mxGeometry relative="1" as="geometry">
            <mxPoint x="-784" y="-133" as="sourcePoint" />
            <mxPoint x="-716" y="-747" as="targetPoint" />
          </mxGeometry>
        </mxCell>
        <mxCell id="PLHjshaNbv-pAc6cqL0V-8" value="&lt;div&gt;0..1&lt;/div&gt;" style="resizable=0;html=1;align=right;verticalAlign=bottom;labelBackgroundColor=#ffffff;fontSize=10;shadow=0;" parent="PLHjshaNbv-pAc6cqL0V-6" connectable="0" vertex="1">
          <mxGeometry x="1" relative="1" as="geometry">
            <mxPoint x="-5" y="-5" as="offset" />
          </mxGeometry>
        </mxCell>
        <mxCell id="PLHjshaNbv-pAc6cqL0V-9" value="" style="endArrow=none;html=1;edgeStyle=orthogonalEdgeStyle;shadow=0;" parent="WIyWlLk6GJQsqaUBKTNV-1" source="zkfFHV4jXpPFQw0GAbJ--6" target="0sjL9ywvOhM1zj3qhhSV-2" edge="1">
          <mxGeometry relative="1" as="geometry">
            <mxPoint x="-877" y="-380" as="sourcePoint" />
            <mxPoint x="-1068" y="-1022" as="targetPoint" />
            <Array as="points">
              <mxPoint x="-310" y="-1780" />
              <mxPoint x="-310" y="-1500" />
            </Array>
          </mxGeometry>
        </mxCell>
        <mxCell id="PLHjshaNbv-pAc6cqL0V-10" value="0..1" style="resizable=0;html=1;align=left;verticalAlign=bottom;labelBackgroundColor=#ffffff;fontSize=10;shadow=0;" parent="PLHjshaNbv-pAc6cqL0V-9" connectable="0" vertex="1">
          <mxGeometry x="-1" relative="1" as="geometry">
            <mxPoint x="-25" y="24" as="offset" />
          </mxGeometry>
        </mxCell>
        <mxCell id="PLHjshaNbv-pAc6cqL0V-11" value="" style="resizable=0;html=1;align=right;verticalAlign=bottom;labelBackgroundColor=#ffffff;fontSize=10;shadow=0;" parent="PLHjshaNbv-pAc6cqL0V-9" connectable="0" vertex="1">
          <mxGeometry x="1" relative="1" as="geometry" />
        </mxCell>
        <mxCell id="PLHjshaNbv-pAc6cqL0V-12" value="" style="endArrow=none;html=1;shadow=0;" parent="WIyWlLk6GJQsqaUBKTNV-1" edge="1">
          <mxGeometry relative="1" as="geometry">
            <mxPoint x="-830" y="-1377.5" as="sourcePoint" />
            <mxPoint x="-920" y="-1377.5" as="targetPoint" />
          </mxGeometry>
        </mxCell>
        <mxCell id="PLHjshaNbv-pAc6cqL0V-14" value="2..*" style="resizable=0;html=1;align=right;verticalAlign=bottom;labelBackgroundColor=#ffffff;fontSize=10;shadow=0;" parent="PLHjshaNbv-pAc6cqL0V-12" connectable="0" vertex="1">
          <mxGeometry x="1" relative="1" as="geometry">
            <mxPoint x="25" y="-10" as="offset" />
          </mxGeometry>
        </mxCell>
        <mxCell id="PLHjshaNbv-pAc6cqL0V-15" value="" style="endArrow=none;html=1;shadow=0;edgeStyle=orthogonalEdgeStyle;" parent="WIyWlLk6GJQsqaUBKTNV-1" source="0sjL9ywvOhM1zj3qhhSV-2" target="c_oKNNHpZlxhWvdRLZM5-3" edge="1">
          <mxGeometry relative="1" as="geometry">
            <mxPoint x="-536.998260869565" y="-1338" as="sourcePoint" />
            <mxPoint x="-461.0116387959865" y="-1210" as="targetPoint" />
            <Array as="points">
              <mxPoint x="-619" y="-1230" />
              <mxPoint x="-619" y="-1230" />
            </Array>
          </mxGeometry>
        </mxCell>
        <mxCell id="PLHjshaNbv-pAc6cqL0V-17" value="&lt;div&gt;1&lt;/div&gt;" style="resizable=0;html=1;align=right;verticalAlign=bottom;labelBackgroundColor=#ffffff;fontSize=10;shadow=0;" parent="PLHjshaNbv-pAc6cqL0V-15" connectable="0" vertex="1">
          <mxGeometry x="1" relative="1" as="geometry">
            <mxPoint x="17" y="-10" as="offset" />
          </mxGeometry>
        </mxCell>
        <mxCell id="PLHjshaNbv-pAc6cqL0V-18" value="" style="endArrow=none;html=1;edgeStyle=orthogonalEdgeStyle;shadow=0;" parent="WIyWlLk6GJQsqaUBKTNV-1" source="zkfFHV4jXpPFQw0GAbJ--17" target="zkfFHV4jXpPFQw0GAbJ--13" edge="1">
          <mxGeometry relative="1" as="geometry">
            <mxPoint x="-319" y="-285" as="sourcePoint" />
            <mxPoint x="-1077" y="-572" as="targetPoint" />
            <Array as="points">
              <mxPoint x="-220" y="-2110" />
              <mxPoint x="-220" y="-2110" />
            </Array>
          </mxGeometry>
        </mxCell>
        <mxCell id="PLHjshaNbv-pAc6cqL0V-19" value="1" style="resizable=0;html=1;align=left;verticalAlign=bottom;labelBackgroundColor=#ffffff;fontSize=10;shadow=0;" parent="PLHjshaNbv-pAc6cqL0V-18" connectable="0" vertex="1">
          <mxGeometry x="-1" relative="1" as="geometry">
            <mxPoint x="-19" y="-9" as="offset" />
          </mxGeometry>
        </mxCell>
        <mxCell id="PLHjshaNbv-pAc6cqL0V-21" value="" style="endArrow=none;html=1;edgeStyle=orthogonalEdgeStyle;shadow=0;" parent="WIyWlLk6GJQsqaUBKTNV-1" source="zkfFHV4jXpPFQw0GAbJ--13" target="0sjL9ywvOhM1zj3qhhSV-10" edge="1">
          <mxGeometry relative="1" as="geometry">
            <mxPoint x="-978" y="-962" as="sourcePoint" />
            <mxPoint x="-420" y="-2510" as="targetPoint" />
            <Array as="points">
              <mxPoint x="-385" y="-2550" />
            </Array>
          </mxGeometry>
        </mxCell>
        <mxCell id="PLHjshaNbv-pAc6cqL0V-23" value="1" style="resizable=0;html=1;align=right;verticalAlign=bottom;labelBackgroundColor=#ffffff;fontSize=10;shadow=0;" parent="PLHjshaNbv-pAc6cqL0V-21" connectable="0" vertex="1">
          <mxGeometry x="1" relative="1" as="geometry">
            <mxPoint x="21" y="18" as="offset" />
          </mxGeometry>
        </mxCell>
        <mxCell id="PLHjshaNbv-pAc6cqL0V-24" value="" style="endArrow=none;html=1;shadow=0;edgeStyle=orthogonalEdgeStyle;" parent="WIyWlLk6GJQsqaUBKTNV-1" source="0sjL9ywvOhM1zj3qhhSV-14" target="0sjL9ywvOhM1zj3qhhSV-10" edge="1">
          <mxGeometry relative="1" as="geometry">
            <mxPoint x="-517" y="-743" as="sourcePoint" />
            <mxPoint x="-215" y="-479" as="targetPoint" />
            <Array as="points">
              <mxPoint x="-630" y="-2835" />
            </Array>
          </mxGeometry>
        </mxCell>
        <mxCell id="PLHjshaNbv-pAc6cqL0V-25" value="1" style="resizable=0;html=1;align=left;verticalAlign=bottom;labelBackgroundColor=#ffffff;fontSize=10;shadow=0;" parent="PLHjshaNbv-pAc6cqL0V-24" connectable="0" vertex="1">
          <mxGeometry x="-1" relative="1" as="geometry">
            <mxPoint x="8" y="25" as="offset" />
          </mxGeometry>
        </mxCell>
        <mxCell id="PLHjshaNbv-pAc6cqL0V-27" value="" style="endArrow=none;html=1;edgeStyle=orthogonalEdgeStyle;shadow=0;" parent="WIyWlLk6GJQsqaUBKTNV-1" source="0sjL9ywvOhM1zj3qhhSV-22" target="zkfFHV4jXpPFQw0GAbJ--13" edge="1">
          <mxGeometry relative="1" as="geometry">
            <mxPoint x="-557" y="-837" as="sourcePoint" />
            <mxPoint x="-606" y="-597" as="targetPoint" />
            <Array as="points">
              <mxPoint x="-600" y="-2070" />
              <mxPoint x="-600" y="-2070" />
            </Array>
          </mxGeometry>
        </mxCell>
        <mxCell id="PLHjshaNbv-pAc6cqL0V-29" value="&lt;div&gt;1..*&lt;/div&gt;" style="resizable=0;html=1;align=right;verticalAlign=bottom;labelBackgroundColor=#ffffff;fontSize=10;shadow=0;" parent="PLHjshaNbv-pAc6cqL0V-27" connectable="0" vertex="1">
          <mxGeometry x="1" relative="1" as="geometry">
            <mxPoint x="-14" y="-6" as="offset" />
          </mxGeometry>
        </mxCell>
        <mxCell id="PLHjshaNbv-pAc6cqL0V-30" value="" style="endArrow=none;html=1;edgeStyle=orthogonalEdgeStyle;shadow=0;" parent="WIyWlLk6GJQsqaUBKTNV-1" source="oILE0hQg-X34ujy6vTA9-13" target="0sjL9ywvOhM1zj3qhhSV-24" edge="1">
          <mxGeometry relative="1" as="geometry">
            <mxPoint x="-1046" y="-1067.5" as="sourcePoint" />
            <mxPoint x="-1126" y="-853.5" as="targetPoint" />
            <Array as="points">
              <mxPoint x="-937" y="-1785.5" />
              <mxPoint x="-937" y="-1785.5" />
            </Array>
          </mxGeometry>
        </mxCell>
        <mxCell id="PLHjshaNbv-pAc6cqL0V-32" value="1" style="resizable=0;html=1;align=right;verticalAlign=bottom;labelBackgroundColor=#ffffff;fontSize=10;shadow=0;" parent="PLHjshaNbv-pAc6cqL0V-30" connectable="0" vertex="1">
          <mxGeometry x="1" relative="1" as="geometry">
            <mxPoint x="21" y="-4" as="offset" />
          </mxGeometry>
        </mxCell>
        <mxCell id="PLHjshaNbv-pAc6cqL0V-33" value="" style="endArrow=none;html=1;shadow=0;edgeStyle=orthogonalEdgeStyle;" parent="WIyWlLk6GJQsqaUBKTNV-1" source="oILE0hQg-X34ujy6vTA9-13" target="oILE0hQg-X34ujy6vTA9-19" edge="1">
          <mxGeometry relative="1" as="geometry">
            <mxPoint x="-12" y="-1187.51" as="sourcePoint" />
            <mxPoint x="480" y="-1707.5" as="targetPoint" />
            <Array as="points">
              <mxPoint x="-633" y="-1884.5" />
              <mxPoint x="-633" y="-1884.5" />
            </Array>
          </mxGeometry>
        </mxCell>
        <mxCell id="PLHjshaNbv-pAc6cqL0V-35" value="0" style="resizable=0;html=1;align=right;verticalAlign=bottom;labelBackgroundColor=#ffffff;fontSize=10;shadow=0;" parent="PLHjshaNbv-pAc6cqL0V-33" connectable="0" vertex="1">
          <mxGeometry x="1" relative="1" as="geometry">
            <mxPoint x="-4" y="18" as="offset" />
          </mxGeometry>
        </mxCell>
        <mxCell id="PLHjshaNbv-pAc6cqL0V-39" value="" style="endArrow=none;html=1;edgeStyle=orthogonalEdgeStyle;shadow=0;" parent="WIyWlLk6GJQsqaUBKTNV-1" source="0sjL9ywvOhM1zj3qhhSV-24" target="0sjL9ywvOhM1zj3qhhSV-2" edge="1">
          <mxGeometry relative="1" as="geometry">
            <mxPoint x="-1077.45" y="-829.09" as="sourcePoint" />
            <mxPoint x="-1229.995454545455" y="-604.09" as="targetPoint" />
            <Array as="points">
              <mxPoint x="-930" y="-1500" />
            </Array>
          </mxGeometry>
        </mxCell>
        <mxCell id="PLHjshaNbv-pAc6cqL0V-40" value="&lt;div&gt;0..*&lt;/div&gt;" style="resizable=0;html=1;align=right;verticalAlign=bottom;labelBackgroundColor=#ffffff;fontSize=10;shadow=0;" parent="PLHjshaNbv-pAc6cqL0V-39" connectable="0" vertex="1">
          <mxGeometry x="1" relative="1" as="geometry">
            <mxPoint x="-16" y="-10" as="offset" />
          </mxGeometry>
        </mxCell>
        <mxCell id="oILE0hQg-X34ujy6vTA9-3" value="Extends" style="endArrow=block;endSize=16;endFill=0;html=1;shadow=0;" parent="WIyWlLk6GJQsqaUBKTNV-1" source="0sjL9ywvOhM1zj3qhhSV-24" target="0sjL9ywvOhM1zj3qhhSV-22" edge="1">
          <mxGeometry x="-0.0476" width="160" relative="1" as="geometry">
            <mxPoint x="-1024" y="-665" as="sourcePoint" />
            <mxPoint x="-755" y="-675" as="targetPoint" />
            <mxPoint as="offset" />
          </mxGeometry>
        </mxCell>
        <mxCell id="kIvDjQpewUcBJA9TdNjF-3" value="" style="endArrow=none;html=1;shadow=0;" parent="WIyWlLk6GJQsqaUBKTNV-1" source="kIvDjQpewUcBJA9TdNjF-2" edge="1">
          <mxGeometry relative="1" as="geometry">
            <mxPoint x="-918.5" y="-900" as="sourcePoint" />
            <mxPoint x="-918.25" y="-938" as="targetPoint" />
          </mxGeometry>
        </mxCell>
        <mxCell id="kIvDjQpewUcBJA9TdNjF-4" value="1" style="resizable=0;html=1;align=left;verticalAlign=bottom;labelBackgroundColor=#ffffff;fontSize=10;shadow=0;" parent="kIvDjQpewUcBJA9TdNjF-3" connectable="0" vertex="1">
          <mxGeometry x="-1" relative="1" as="geometry">
            <mxPoint x="-20" y="-18" as="offset" />
          </mxGeometry>
        </mxCell>
        <mxCell id="4eXEjW7_JQ5vGszaP3kl-1" value="" style="endArrow=none;html=1;edgeStyle=orthogonalEdgeStyle;shadow=0;" parent="WIyWlLk6GJQsqaUBKTNV-1" source="zkfFHV4jXpPFQw0GAbJ--6" target="zkfFHV4jXpPFQw0GAbJ--13" edge="1">
          <mxGeometry relative="1" as="geometry">
            <mxPoint x="-909" y="-177" as="sourcePoint" />
            <mxPoint x="-1050" y="-395" as="targetPoint" />
            <Array as="points">
              <mxPoint x="-385" y="-1860" />
            </Array>
          </mxGeometry>
        </mxCell>
        <mxCell id="4eXEjW7_JQ5vGszaP3kl-2" value="0..1" style="resizable=0;html=1;align=left;verticalAlign=bottom;labelBackgroundColor=#ffffff;fontSize=10;shadow=0;" parent="4eXEjW7_JQ5vGszaP3kl-1" connectable="0" vertex="1">
          <mxGeometry x="-1" relative="1" as="geometry">
            <mxPoint x="-33" y="20" as="offset" />
          </mxGeometry>
        </mxCell>
        <mxCell id="4eXEjW7_JQ5vGszaP3kl-3" value="" style="resizable=0;html=1;align=right;verticalAlign=bottom;labelBackgroundColor=#ffffff;fontSize=10;shadow=0;" parent="4eXEjW7_JQ5vGszaP3kl-1" connectable="0" vertex="1">
          <mxGeometry x="1" relative="1" as="geometry" />
        </mxCell>
        <mxCell id="0sjL9ywvOhM1zj3qhhSV-2" value="Edge" style="swimlane;fontStyle=0;childLayout=stackLayout;horizontal=1;startSize=26;fillColor=none;horizontalStack=0;resizeParent=1;resizeParentMax=0;resizeLast=0;collapsible=1;marginBottom=0;shadow=0;movable=1;resizable=1;rotatable=1;deletable=1;editable=1;connectable=1;container=0;" parent="WIyWlLk6GJQsqaUBKTNV-1" vertex="1">
          <mxGeometry x="-830" y="-1520" width="403" height="182" as="geometry" />
        </mxCell>
        <mxCell id="0sjL9ywvOhM1zj3qhhSV-46" value="- id: string" style="text;strokeColor=none;fillColor=none;align=left;verticalAlign=top;spacingLeft=4;spacingRight=4;overflow=hidden;rotatable=0;points=[[0,0.5],[1,0.5]];portConstraint=eastwest;shadow=0;" parent="0sjL9ywvOhM1zj3qhhSV-2" vertex="1">
          <mxGeometry y="26" width="403" height="26" as="geometry" />
        </mxCell>
        <mxCell id="0sjL9ywvOhM1zj3qhhSV-3" value="- bpmnElement: SequenceFlow" style="text;strokeColor=none;fillColor=none;align=left;verticalAlign=top;spacingLeft=4;spacingRight=4;overflow=hidden;rotatable=0;points=[[0,0.5],[1,0.5]];portConstraint=eastwest;shadow=0;" parent="0sjL9ywvOhM1zj3qhhSV-2" vertex="1">
          <mxGeometry y="52" width="403" height="26" as="geometry" />
        </mxCell>
        <mxCell id="0sjL9ywvOhM1zj3qhhSV-4" value="- waypoints: Waypoint[]" style="text;strokeColor=none;fillColor=none;align=left;verticalAlign=top;spacingLeft=4;spacingRight=4;overflow=hidden;rotatable=0;points=[[0,0.5],[1,0.5]];portConstraint=eastwest;shadow=0;" parent="0sjL9ywvOhM1zj3qhhSV-2" vertex="1">
          <mxGeometry y="78" width="403" height="26" as="geometry" />
        </mxCell>
        <mxCell id="3JoKrsNmHiWk_ACY0eKF-5" value="- label: Label" style="text;strokeColor=none;fillColor=none;align=left;verticalAlign=top;spacingLeft=4;spacingRight=4;overflow=hidden;rotatable=0;points=[[0,0.5],[1,0.5]];portConstraint=eastwest;shadow=0;" parent="0sjL9ywvOhM1zj3qhhSV-2" vertex="1">
          <mxGeometry y="104" width="403" height="26" as="geometry" />
        </mxCell>
        <mxCell id="bgp1F87hh6HLPxp8cGTV-0" value="- messageVisibleKind: MessageVisibleKind = MessageVisibleKind.NONE" style="text;strokeColor=none;fillColor=none;align=left;verticalAlign=top;spacingLeft=4;spacingRight=4;overflow=hidden;rotatable=0;points=[[0,0.5],[1,0.5]];portConstraint=eastwest;shadow=0;" parent="0sjL9ywvOhM1zj3qhhSV-2" vertex="1">
          <mxGeometry y="130" width="403" height="26" as="geometry" />
        </mxCell>
        <mxCell id="2" value="- extensions: EdgeExtensions" style="text;strokeColor=none;fillColor=none;align=left;verticalAlign=top;spacingLeft=4;spacingRight=4;overflow=hidden;rotatable=0;points=[[0,0.5],[1,0.5]];portConstraint=eastwest;shadow=0;" parent="0sjL9ywvOhM1zj3qhhSV-2" vertex="1">
          <mxGeometry y="156" width="403" height="26" as="geometry" />
        </mxCell>
        <mxCell id="zkfFHV4jXpPFQw0GAbJ--13" value="Shape" style="swimlane;fontStyle=0;align=center;verticalAlign=top;childLayout=stackLayout;horizontal=1;startSize=26;horizontalStack=0;resizeParent=1;resizeLast=0;collapsible=1;marginBottom=0;rounded=0;shadow=0;strokeWidth=1;fillColor=none;" parent="WIyWlLk6GJQsqaUBKTNV-1" vertex="1">
          <mxGeometry x="-500" y="-2210" width="230" height="239" as="geometry">
            <mxRectangle x="340" y="380" width="170" height="26" as="alternateBounds" />
          </mxGeometry>
        </mxCell>
        <mxCell id="0sjL9ywvOhM1zj3qhhSV-39" value="- id: string" style="text;strokeColor=none;fillColor=none;align=left;verticalAlign=top;spacingLeft=4;spacingRight=4;overflow=hidden;rotatable=0;points=[[0,0.5],[1,0.5]];portConstraint=eastwest;shadow=0;" parent="zkfFHV4jXpPFQw0GAbJ--13" vertex="1">
          <mxGeometry y="26" width="230" height="26" as="geometry" />
        </mxCell>
        <mxCell id="0sjL9ywvOhM1zj3qhhSV-49" value="- bpmnElement: ShapeBpmnElement" style="text;strokeColor=none;fillColor=none;align=left;verticalAlign=top;spacingLeft=4;spacingRight=4;overflow=hidden;rotatable=0;points=[[0,0.5],[1,0.5]];portConstraint=eastwest;shadow=0;" parent="zkfFHV4jXpPFQw0GAbJ--13" vertex="1">
          <mxGeometry y="52" width="230" height="26" as="geometry" />
        </mxCell>
        <mxCell id="0sjL9ywvOhM1zj3qhhSV-50" value="- bounds: Bounds" style="text;strokeColor=none;fillColor=none;align=left;verticalAlign=top;spacingLeft=4;spacingRight=4;overflow=hidden;rotatable=0;points=[[0,0.5],[1,0.5]];portConstraint=eastwest;shadow=0;" parent="zkfFHV4jXpPFQw0GAbJ--13" vertex="1">
          <mxGeometry y="78" width="230" height="26" as="geometry" />
        </mxCell>
        <mxCell id="bgp1F87hh6HLPxp8cGTV-1" value="- label: Label" style="text;strokeColor=none;fillColor=none;align=left;verticalAlign=top;spacingLeft=4;spacingRight=4;overflow=hidden;rotatable=0;points=[[0,0.5],[1,0.5]];portConstraint=eastwest;shadow=0;" parent="zkfFHV4jXpPFQw0GAbJ--13" vertex="1">
          <mxGeometry y="104" width="230" height="26" as="geometry" />
        </mxCell>
        <mxCell id="0sjL9ywvOhM1zj3qhhSV-40" value="- isHorizontal?: boolean" style="text;strokeColor=none;fillColor=none;align=left;verticalAlign=top;spacingLeft=4;spacingRight=4;overflow=hidden;rotatable=0;points=[[0,0.5],[1,0.5]];portConstraint=eastwest;shadow=0;" parent="zkfFHV4jXpPFQw0GAbJ--13" vertex="1">
          <mxGeometry y="130" width="230" height="26" as="geometry" />
        </mxCell>
        <mxCell id="0sjL9ywvOhM1zj3qhhSV-42" value="- isMarkerVisible?: boolean" style="text;strokeColor=none;fillColor=none;align=left;verticalAlign=top;spacingLeft=4;spacingRight=4;overflow=hidden;rotatable=0;points=[[0,0.5],[1,0.5]];portConstraint=eastwest;shadow=0;" parent="zkfFHV4jXpPFQw0GAbJ--13" vertex="1">
          <mxGeometry y="156" width="230" height="26" as="geometry" />
        </mxCell>
        <mxCell id="0sjL9ywvOhM1zj3qhhSV-43" value="- isMessageVisible?: boolean" style="text;strokeColor=none;fillColor=none;align=left;verticalAlign=top;spacingLeft=4;spacingRight=4;overflow=hidden;rotatable=0;points=[[0,0.5],[1,0.5]];portConstraint=eastwest;shadow=0;" parent="zkfFHV4jXpPFQw0GAbJ--13" vertex="1">
          <mxGeometry y="182" width="230" height="26" as="geometry" />
        </mxCell>
        <mxCell id="0" value="- extensions: ShapeExtensions" style="text;strokeColor=none;fillColor=none;align=left;verticalAlign=top;spacingLeft=4;spacingRight=4;overflow=hidden;rotatable=0;points=[[0,0.5],[1,0.5]];portConstraint=eastwest;shadow=0;" parent="zkfFHV4jXpPFQw0GAbJ--13" vertex="1">
          <mxGeometry y="208" width="230" height="26" as="geometry" />
        </mxCell>
        <mxCell id="0sjL9ywvOhM1zj3qhhSV-22" value="Shapes" style="swimlane;fontStyle=0;align=center;verticalAlign=top;childLayout=stackLayout;horizontal=1;startSize=26;horizontalStack=0;resizeParent=1;resizeLast=0;collapsible=1;marginBottom=0;rounded=0;shadow=0;strokeWidth=1;fillColor=none;" parent="WIyWlLk6GJQsqaUBKTNV-1" vertex="1">
          <mxGeometry x="-1010" y="-2117" width="160" height="104" as="geometry">
            <mxRectangle x="340" y="380" width="170" height="26" as="alternateBounds" />
          </mxGeometry>
        </mxCell>
        <mxCell id="oILE0hQg-X34ujy6vTA9-0" value="- flowNodes: Shape[]" style="text;strokeColor=none;fillColor=none;align=left;verticalAlign=top;spacingLeft=4;spacingRight=4;overflow=hidden;rotatable=0;points=[[0,0.5],[1,0.5]];portConstraint=eastwest;shadow=0;" parent="0sjL9ywvOhM1zj3qhhSV-22" vertex="1">
          <mxGeometry y="26" width="160" height="26" as="geometry" />
        </mxCell>
        <mxCell id="0sjL9ywvOhM1zj3qhhSV-28" value="- lanes: Shape[]" style="text;strokeColor=none;fillColor=none;align=left;verticalAlign=top;spacingLeft=4;spacingRight=4;overflow=hidden;rotatable=0;points=[[0,0.5],[1,0.5]];portConstraint=eastwest;shadow=0;" parent="0sjL9ywvOhM1zj3qhhSV-22" vertex="1">
          <mxGeometry y="52" width="160" height="26" as="geometry" />
        </mxCell>
        <mxCell id="oILE0hQg-X34ujy6vTA9-1" value="- pools: Shape[]" style="text;strokeColor=none;fillColor=none;align=left;verticalAlign=top;spacingLeft=4;spacingRight=4;overflow=hidden;rotatable=0;points=[[0,0.5],[1,0.5]];portConstraint=eastwest;shadow=0;" parent="0sjL9ywvOhM1zj3qhhSV-22" vertex="1">
          <mxGeometry y="78" width="160" height="26" as="geometry" />
        </mxCell>
        <mxCell id="bgp1F87hh6HLPxp8cGTV-9" value="Extends" style="endArrow=block;endSize=16;endFill=0;html=1;shadow=0;edgeStyle=orthogonalEdgeStyle;" parent="WIyWlLk6GJQsqaUBKTNV-1" edge="1">
          <mxGeometry x="0.396" y="30" width="160" relative="1" as="geometry">
            <mxPoint x="-530" y="-3038" as="sourcePoint" />
            <mxPoint x="-530" y="-2740" as="targetPoint" />
            <Array as="points">
              <mxPoint x="-530" y="-2990" />
              <mxPoint x="-530" y="-2990" />
            </Array>
            <mxPoint as="offset" />
          </mxGeometry>
        </mxCell>
        <mxCell id="bgp1F87hh6HLPxp8cGTV-10" value="Extends" style="endArrow=block;endSize=16;endFill=0;html=1;shadow=0;edgeStyle=orthogonalEdgeStyle;" parent="WIyWlLk6GJQsqaUBKTNV-1" source="5jXRLhcHuSpQMxQYhV9y-0" target="bgp1F87hh6HLPxp8cGTV-2" edge="1">
          <mxGeometry x="0.0731" y="10" width="160" relative="1" as="geometry">
            <mxPoint x="99.01" y="-36.5" as="sourcePoint" />
            <mxPoint x="-675" y="-3070" as="targetPoint" />
            <Array as="points">
              <mxPoint x="-936" y="-3070" />
            </Array>
            <mxPoint as="offset" />
          </mxGeometry>
        </mxCell>
        <mxCell id="bgp1F87hh6HLPxp8cGTV-12" value="" style="endArrow=none;html=1;shadow=0;edgeStyle=orthogonalEdgeStyle;" parent="WIyWlLk6GJQsqaUBKTNV-1" source="bgp1F87hh6HLPxp8cGTV-11" target="bgp1F87hh6HLPxp8cGTV-2" edge="1">
          <mxGeometry relative="1" as="geometry">
            <mxPoint x="51" y="-520" as="sourcePoint" />
            <mxPoint x="-261" y="-317" as="targetPoint" />
            <Array as="points">
              <mxPoint x="-470" y="-2964" />
            </Array>
          </mxGeometry>
        </mxCell>
        <mxCell id="bgp1F87hh6HLPxp8cGTV-14" value="1" style="edgeLabel;html=1;align=center;verticalAlign=middle;resizable=0;points=[];" parent="bgp1F87hh6HLPxp8cGTV-12" vertex="1" connectable="0">
          <mxGeometry x="-0.7299" y="-1" relative="1" as="geometry">
            <mxPoint x="14" y="-14" as="offset" />
          </mxGeometry>
        </mxCell>
        <mxCell id="UfOXiXSs-xiothV765re-2" value="Extends" style="endArrow=block;endSize=16;endFill=0;html=1;shadow=0;edgeStyle=orthogonalEdgeStyle;" parent="WIyWlLk6GJQsqaUBKTNV-1" source="vmLdbWMzX00juD9bsbE4-8" target="vmLdbWMzX00juD9bsbE4-1" edge="1">
          <mxGeometry x="-0.3415" y="30" width="160" relative="1" as="geometry">
            <mxPoint x="100.85090909090809" y="-585" as="sourcePoint" />
            <mxPoint x="-168.50000000000023" y="-641" as="targetPoint" />
            <mxPoint as="offset" />
            <Array as="points">
              <mxPoint x="-940" y="-2560" />
              <mxPoint x="-940" y="-2560" />
            </Array>
          </mxGeometry>
        </mxCell>
        <mxCell id="UfOXiXSs-xiothV765re-4" value="" style="endArrow=none;html=1;shadow=0;" parent="WIyWlLk6GJQsqaUBKTNV-1" source="BaRzC9VioB_bW7rK_CGJ-0" target="UfOXiXSs-xiothV765re-0" edge="1">
          <mxGeometry relative="1" as="geometry">
            <mxPoint x="-333.7449999999999" y="-20" as="sourcePoint" />
            <mxPoint x="-333.5" y="-115" as="targetPoint" />
          </mxGeometry>
        </mxCell>
        <mxCell id="vmLdbWMzX00juD9bsbE4-6" value="1" style="edgeLabel;html=1;align=center;verticalAlign=middle;resizable=0;points=[];" parent="UfOXiXSs-xiothV765re-4" vertex="1" connectable="0">
          <mxGeometry x="-0.4595" y="1" relative="1" as="geometry">
            <mxPoint x="9" y="6" as="offset" />
          </mxGeometry>
        </mxCell>
        <mxCell id="c_oKNNHpZlxhWvdRLZM5-0" value="" style="endArrow=none;html=1;shadow=0;jumpStyle=none;edgeStyle=orthogonalEdgeStyle;" parent="WIyWlLk6GJQsqaUBKTNV-1" source="oILE0hQg-X34ujy6vTA9-13" target="oILE0hQg-X34ujy6vTA9-22" edge="1">
          <mxGeometry relative="1" as="geometry">
            <mxPoint x="-249" y="-1614.5" as="sourcePoint" />
            <mxPoint x="-139" y="-1610.5" as="targetPoint" />
            <Array as="points">
              <mxPoint x="-689" y="-1787.5" />
              <mxPoint x="-689" y="-1787.5" />
            </Array>
          </mxGeometry>
        </mxCell>
        <mxCell id="c_oKNNHpZlxhWvdRLZM5-1" value="0" style="resizable=0;html=1;align=right;verticalAlign=bottom;labelBackgroundColor=#ffffff;fontSize=10;shadow=0;" parent="c_oKNNHpZlxhWvdRLZM5-0" connectable="0" vertex="1">
          <mxGeometry x="1" relative="1" as="geometry">
            <mxPoint x="-4" y="-8" as="offset" />
          </mxGeometry>
        </mxCell>
        <mxCell id="c_oKNNHpZlxhWvdRLZM5-9" value="Extends" style="endArrow=block;endSize=16;endFill=0;html=1;shadow=0;edgeStyle=orthogonalEdgeStyle;" parent="WIyWlLk6GJQsqaUBKTNV-1" source="0sjL9ywvOhM1zj3qhhSV-18" target="c_oKNNHpZlxhWvdRLZM5-3" edge="1">
          <mxGeometry x="0.231" y="10" width="160" relative="1" as="geometry">
            <mxPoint x="-1471.5000000000005" y="-787.9959999999999" as="sourcePoint" />
            <mxPoint x="-1220.9" y="-786.2631760435572" as="targetPoint" />
            <Array as="points">
              <mxPoint x="-918" y="-1060" />
            </Array>
            <mxPoint x="1" as="offset" />
          </mxGeometry>
        </mxCell>
        <mxCell id="c_oKNNHpZlxhWvdRLZM5-13" value="Extends" style="endArrow=block;endSize=16;endFill=0;html=1;shadow=0;edgeStyle=orthogonalEdgeStyle;" parent="WIyWlLk6GJQsqaUBKTNV-1" source="c_oKNNHpZlxhWvdRLZM5-10" target="c_oKNNHpZlxhWvdRLZM5-3" edge="1">
          <mxGeometry x="-0.0226" y="-16" width="160" relative="1" as="geometry">
            <mxPoint x="-1372.9955555555555" y="-497" as="sourcePoint" />
            <mxPoint x="-1372.5844444444444" y="-571" as="targetPoint" />
            <Array as="points">
              <mxPoint x="-230" y="-1060" />
            </Array>
            <mxPoint as="offset" />
          </mxGeometry>
        </mxCell>
        <mxCell id="oILE0hQg-X34ujy6vTA9-5" value="Participant" style="swimlane;fontStyle=0;childLayout=stackLayout;horizontal=1;startSize=26;fillColor=none;horizontalStack=0;resizeParent=1;resizeParentMax=0;resizeLast=0;collapsible=1;marginBottom=0;shadow=0;" parent="WIyWlLk6GJQsqaUBKTNV-1" vertex="1">
          <mxGeometry x="-252.87" y="-2533" width="192" height="104" as="geometry" />
        </mxCell>
        <mxCell id="oILE0hQg-X34ujy6vTA9-7" value="- name?: string" style="text;strokeColor=none;fillColor=none;align=left;verticalAlign=top;spacingLeft=4;spacingRight=4;overflow=hidden;rotatable=0;points=[[0,0.5],[1,0.5]];portConstraint=eastwest;shadow=0;" parent="oILE0hQg-X34ujy6vTA9-5" vertex="1">
          <mxGeometry y="26" width="192" height="26" as="geometry" />
        </mxCell>
        <mxCell id="oILE0hQg-X34ujy6vTA9-6" value="- id: string" style="text;strokeColor=none;fillColor=none;align=left;verticalAlign=top;spacingLeft=4;spacingRight=4;overflow=hidden;rotatable=0;points=[[0,0.5],[1,0.5]];portConstraint=eastwest;shadow=0;" parent="oILE0hQg-X34ujy6vTA9-5" vertex="1">
          <mxGeometry y="52" width="192" height="26" as="geometry" />
        </mxCell>
        <mxCell id="oILE0hQg-X34ujy6vTA9-9" value="- processRef?: string" style="text;strokeColor=none;fillColor=none;align=left;verticalAlign=top;spacingLeft=4;spacingRight=4;overflow=hidden;rotatable=0;points=[[0,0.5],[1,0.5]];portConstraint=eastwest;shadow=0;" parent="oILE0hQg-X34ujy6vTA9-5" vertex="1">
          <mxGeometry y="78" width="192" height="26" as="geometry" />
        </mxCell>
        <mxCell id="0sjL9ywvOhM1zj3qhhSV-10" value="ShapeBpmnElement" style="swimlane;fontStyle=0;childLayout=stackLayout;horizontal=1;startSize=26;fillColor=none;horizontalStack=0;resizeParent=1;resizeParentMax=0;resizeLast=0;collapsible=1;marginBottom=0;shadow=0;" parent="WIyWlLk6GJQsqaUBKTNV-1" vertex="1">
          <mxGeometry x="-675.5" y="-2740" width="226" height="208" as="geometry" />
        </mxCell>
        <mxCell id="0sjL9ywvOhM1zj3qhhSV-11" value="- id?: string" style="text;strokeColor=none;fillColor=none;align=left;verticalAlign=top;spacingLeft=4;spacingRight=4;overflow=hidden;rotatable=0;points=[[0,0.5],[1,0.5]];portConstraint=eastwest;shadow=0;" parent="0sjL9ywvOhM1zj3qhhSV-10" vertex="1">
          <mxGeometry y="26" width="226" height="26" as="geometry" />
        </mxCell>
        <mxCell id="0sjL9ywvOhM1zj3qhhSV-47" value="- name?: string" style="text;strokeColor=none;fillColor=none;align=left;verticalAlign=top;spacingLeft=4;spacingRight=4;overflow=hidden;rotatable=0;points=[[0,0.5],[1,0.5]];portConstraint=eastwest;shadow=0;" parent="0sjL9ywvOhM1zj3qhhSV-10" vertex="1">
          <mxGeometry y="52" width="226" height="26" as="geometry" />
        </mxCell>
        <mxCell id="0sjL9ywvOhM1zj3qhhSV-48" value="- kind: ShapeBpmnElementKind" style="text;strokeColor=none;fillColor=none;align=left;verticalAlign=top;spacingLeft=4;spacingRight=4;overflow=hidden;rotatable=0;points=[[0,0.5],[1,0.5]];portConstraint=eastwest;shadow=0;" parent="0sjL9ywvOhM1zj3qhhSV-10" vertex="1">
          <mxGeometry y="78" width="226" height="26" as="geometry" />
        </mxCell>
        <mxCell id="0sjL9ywvOhM1zj3qhhSV-12" value="- parentId?: string" style="text;strokeColor=none;fillColor=none;align=left;verticalAlign=top;spacingLeft=4;spacingRight=4;overflow=hidden;rotatable=0;points=[[0,0.5],[1,0.5]];portConstraint=eastwest;shadow=0;" parent="0sjL9ywvOhM1zj3qhhSV-10" vertex="1">
          <mxGeometry y="104" width="226" height="26" as="geometry" />
        </mxCell>
        <mxCell id="UPCmAl3ZLgya5CcKQsAQ-0" value="- instantiate?: boolean = false" style="text;strokeColor=none;fillColor=none;align=left;verticalAlign=top;spacingLeft=4;spacingRight=4;overflow=hidden;rotatable=0;points=[[0,0.5],[1,0.5]];portConstraint=eastwest;shadow=0;" parent="0sjL9ywvOhM1zj3qhhSV-10" vertex="1">
          <mxGeometry y="130" width="226" height="26" as="geometry" />
        </mxCell>
        <mxCell id="0sjL9ywvOhM1zj3qhhSV-41" value="- incomingIds?: string[] = []" style="text;strokeColor=none;fillColor=none;align=left;verticalAlign=top;spacingLeft=4;spacingRight=4;overflow=hidden;rotatable=0;points=[[0,0.5],[1,0.5]];portConstraint=eastwest;shadow=0;" parent="0sjL9ywvOhM1zj3qhhSV-10" vertex="1">
          <mxGeometry y="156" width="226" height="26" as="geometry" />
        </mxCell>
        <mxCell id="UPCmAl3ZLgya5CcKQsAQ-1" value="- outgoingIds?: string[] = []" style="text;strokeColor=none;fillColor=none;align=left;verticalAlign=top;spacingLeft=4;spacingRight=4;overflow=hidden;rotatable=0;points=[[0,0.5],[1,0.5]];portConstraint=eastwest;shadow=0;" parent="0sjL9ywvOhM1zj3qhhSV-10" vertex="1">
          <mxGeometry y="182" width="226" height="26" as="geometry" />
        </mxCell>
        <mxCell id="oILE0hQg-X34ujy6vTA9-13" value="Definitions" style="swimlane;fontStyle=0;childLayout=stackLayout;horizontal=1;startSize=26;fillColor=none;horizontalStack=0;resizeParent=1;resizeParentMax=0;resizeLast=0;collapsible=1;marginBottom=0;shadow=0;" parent="WIyWlLk6GJQsqaUBKTNV-1" vertex="1">
          <mxGeometry x="-729" y="-1856.5" width="192" height="138" as="geometry" />
        </mxCell>
        <mxCell id="oILE0hQg-X34ujy6vTA9-14" value="- collaboration?: Collaboration" style="text;strokeColor=none;fillColor=none;align=left;verticalAlign=top;spacingLeft=4;spacingRight=4;overflow=hidden;rotatable=0;points=[[0,0.5],[1,0.5]];portConstraint=eastwest;shadow=0;" parent="oILE0hQg-X34ujy6vTA9-13" vertex="1">
          <mxGeometry y="26" width="192" height="26" as="geometry" />
        </mxCell>
        <mxCell id="oILE0hQg-X34ujy6vTA9-15" value="- process?: Process" style="text;strokeColor=none;fillColor=none;align=left;verticalAlign=top;spacingLeft=4;spacingRight=4;overflow=hidden;rotatable=0;points=[[0,0.5],[1,0.5]];portConstraint=eastwest;shadow=0;" parent="oILE0hQg-X34ujy6vTA9-13" vertex="1">
          <mxGeometry y="52" width="192" height="26" as="geometry" />
        </mxCell>
        <mxCell id="oILE0hQg-X34ujy6vTA9-16" value="- bpmnModel: BpmnModel" style="text;strokeColor=none;fillColor=none;align=left;verticalAlign=top;spacingLeft=4;spacingRight=4;overflow=hidden;rotatable=0;points=[[0,0.5],[1,0.5]];portConstraint=eastwest;shadow=0;" parent="oILE0hQg-X34ujy6vTA9-13" vertex="1">
          <mxGeometry y="78" width="192" height="26" as="geometry" />
        </mxCell>
        <mxCell id="oILE0hQg-X34ujy6vTA9-17" value="" style="line;strokeWidth=1;fillColor=none;align=left;verticalAlign=middle;spacingTop=-1;spacingLeft=3;spacingRight=3;rotatable=0;labelPosition=right;points=[];portConstraint=eastwest;rounded=0;shadow=0;glass=0;comic=0;" parent="oILE0hQg-X34ujy6vTA9-13" vertex="1">
          <mxGeometry y="104" width="192" height="8" as="geometry" />
        </mxCell>
        <mxCell id="oILE0hQg-X34ujy6vTA9-18" value="+ bpmnModel(): BpmnModel" style="text;strokeColor=none;fillColor=none;align=left;verticalAlign=top;spacingLeft=4;spacingRight=4;overflow=hidden;rotatable=0;points=[[0,0.5],[1,0.5]];portConstraint=eastwest;rounded=0;shadow=0;glass=0;comic=0;" parent="oILE0hQg-X34ujy6vTA9-13" vertex="1">
          <mxGeometry y="112" width="192" height="26" as="geometry" />
        </mxCell>
        <mxCell id="oILE0hQg-X34ujy6vTA9-19" value="Collaboration" style="swimlane;fontStyle=4;childLayout=stackLayout;horizontal=1;startSize=26;fillColor=none;horizontalStack=0;resizeParent=1;resizeParentMax=0;resizeLast=0;collapsible=1;marginBottom=0;shadow=0;" parent="WIyWlLk6GJQsqaUBKTNV-1" vertex="1">
          <mxGeometry x="-699.75" y="-1955.5" width="140" height="40" as="geometry" />
        </mxCell>
        <mxCell id="oILE0hQg-X34ujy6vTA9-22" value="Process" style="swimlane;fontStyle=4;childLayout=stackLayout;horizontal=1;startSize=26;fillColor=none;horizontalStack=0;resizeParent=1;resizeParentMax=0;resizeLast=0;collapsible=1;marginBottom=0;shadow=0;" parent="WIyWlLk6GJQsqaUBKTNV-1" vertex="1">
          <mxGeometry x="-703" y="-1634.5" width="140" height="40" as="geometry" />
        </mxCell>
        <mxCell id="0sjL9ywvOhM1zj3qhhSV-24" value="BpmnModel" style="swimlane;fontStyle=0;align=center;verticalAlign=top;childLayout=stackLayout;horizontal=1;startSize=26;horizontalStack=0;resizeParent=1;resizeLast=0;collapsible=1;marginBottom=0;rounded=0;shadow=0;strokeWidth=1;fillColor=none;" parent="WIyWlLk6GJQsqaUBKTNV-1" vertex="1">
          <mxGeometry x="-1010" y="-1813.5" width="160" height="52" as="geometry">
            <mxRectangle x="340" y="380" width="170" height="26" as="alternateBounds" />
          </mxGeometry>
        </mxCell>
        <mxCell id="oILE0hQg-X34ujy6vTA9-2" value="- edges: Edge[]" style="text;strokeColor=none;fillColor=none;align=left;verticalAlign=top;spacingLeft=4;spacingRight=4;overflow=hidden;rotatable=0;points=[[0,0.5],[1,0.5]];portConstraint=eastwest;shadow=0;" parent="0sjL9ywvOhM1zj3qhhSV-24" vertex="1">
          <mxGeometry y="26" width="160" height="26" as="geometry" />
        </mxCell>
        <mxCell id="zkfFHV4jXpPFQw0GAbJ--6" value="Label" style="swimlane;fontStyle=0;align=center;verticalAlign=top;childLayout=stackLayout;horizontal=1;startSize=30;horizontalStack=0;resizeParent=1;resizeLast=0;collapsible=1;marginBottom=0;rounded=0;shadow=0;strokeWidth=1;fillColor=none;" parent="WIyWlLk6GJQsqaUBKTNV-1" vertex="1">
          <mxGeometry x="-205" y="-1877.5" width="170" height="116" as="geometry">
            <mxRectangle x="130" y="380" width="160" height="26" as="alternateBounds" />
          </mxGeometry>
        </mxCell>
        <mxCell id="PLHjshaNbv-pAc6cqL0V-0" value="- font?: Font" style="text;strokeColor=none;fillColor=none;align=left;verticalAlign=top;spacingLeft=4;spacingRight=4;overflow=hidden;rotatable=0;points=[[0,0.5],[1,0.5]];portConstraint=eastwest;shadow=0;" parent="zkfFHV4jXpPFQw0GAbJ--6" vertex="1">
          <mxGeometry y="30" width="170" height="26" as="geometry" />
        </mxCell>
        <mxCell id="PLHjshaNbv-pAc6cqL0V-1" value="- bounds?: Bounds" style="text;strokeColor=none;fillColor=none;align=left;verticalAlign=top;spacingLeft=4;spacingRight=4;overflow=hidden;rotatable=0;points=[[0,0.5],[1,0.5]];portConstraint=eastwest;shadow=0;" parent="zkfFHV4jXpPFQw0GAbJ--6" vertex="1">
          <mxGeometry y="56" width="170" height="26" as="geometry" />
        </mxCell>
        <mxCell id="1" value="- extensions: LabelExtensions" style="text;strokeColor=none;fillColor=none;align=left;verticalAlign=top;spacingLeft=4;spacingRight=4;overflow=hidden;rotatable=0;points=[[0,0.5],[1,0.5]];portConstraint=eastwest;shadow=0;" parent="zkfFHV4jXpPFQw0GAbJ--6" vertex="1">
          <mxGeometry y="82" width="170" height="26" as="geometry" />
        </mxCell>
        <mxCell id="zkfFHV4jXpPFQw0GAbJ--0" value="Font" style="swimlane;fontStyle=0;align=center;verticalAlign=top;childLayout=stackLayout;horizontal=1;startSize=30;horizontalStack=0;resizeParent=1;resizeLast=0;collapsible=1;marginBottom=0;rounded=0;shadow=0;strokeWidth=1;fillColor=none;" parent="WIyWlLk6GJQsqaUBKTNV-1" vertex="1">
          <mxGeometry x="-200" y="-1654" width="160" height="193" as="geometry">
            <mxRectangle x="230" y="140" width="160" height="26" as="alternateBounds" />
          </mxGeometry>
        </mxCell>
        <mxCell id="0sjL9ywvOhM1zj3qhhSV-29" value="- name?: string" style="text;strokeColor=none;fillColor=none;align=left;verticalAlign=top;spacingLeft=4;spacingRight=4;overflow=hidden;rotatable=0;points=[[0,0.5],[1,0.5]];portConstraint=eastwest;shadow=0;" parent="zkfFHV4jXpPFQw0GAbJ--0" vertex="1">
          <mxGeometry y="30" width="160" height="26" as="geometry" />
        </mxCell>
        <mxCell id="0sjL9ywvOhM1zj3qhhSV-30" value="- size?: number" style="text;strokeColor=none;fillColor=none;align=left;verticalAlign=top;spacingLeft=4;spacingRight=4;overflow=hidden;rotatable=0;points=[[0,0.5],[1,0.5]];portConstraint=eastwest;shadow=0;" parent="zkfFHV4jXpPFQw0GAbJ--0" vertex="1">
          <mxGeometry y="56" width="160" height="26" as="geometry" />
        </mxCell>
        <mxCell id="0sjL9ywvOhM1zj3qhhSV-31" value="- isBold?: boolean" style="text;strokeColor=none;fillColor=none;align=left;verticalAlign=top;spacingLeft=4;spacingRight=4;overflow=hidden;rotatable=0;points=[[0,0.5],[1,0.5]];portConstraint=eastwest;shadow=0;" parent="zkfFHV4jXpPFQw0GAbJ--0" vertex="1">
          <mxGeometry y="82" width="160" height="26" as="geometry" />
        </mxCell>
        <mxCell id="0sjL9ywvOhM1zj3qhhSV-32" value="- isItalic?: boolean" style="text;strokeColor=none;fillColor=none;align=left;verticalAlign=top;spacingLeft=4;spacingRight=4;overflow=hidden;rotatable=0;points=[[0,0.5],[1,0.5]];portConstraint=eastwest;shadow=0;" parent="zkfFHV4jXpPFQw0GAbJ--0" vertex="1">
          <mxGeometry y="108" width="160" height="26" as="geometry" />
        </mxCell>
        <mxCell id="0sjL9ywvOhM1zj3qhhSV-33" value="- isUnderline?: boolean" style="text;strokeColor=none;fillColor=none;align=left;verticalAlign=top;spacingLeft=4;spacingRight=4;overflow=hidden;rotatable=0;points=[[0,0.5],[1,0.5]];portConstraint=eastwest;shadow=0;" parent="zkfFHV4jXpPFQw0GAbJ--0" vertex="1">
          <mxGeometry y="134" width="160" height="26" as="geometry" />
        </mxCell>
        <mxCell id="0sjL9ywvOhM1zj3qhhSV-34" value="- isStrikeThrough?: boolean" style="text;strokeColor=none;fillColor=none;align=left;verticalAlign=top;spacingLeft=4;spacingRight=4;overflow=hidden;rotatable=0;points=[[0,0.5],[1,0.5]];portConstraint=eastwest;shadow=0;" parent="zkfFHV4jXpPFQw0GAbJ--0" vertex="1">
          <mxGeometry y="160" width="160" height="26" as="geometry" />
        </mxCell>
        <mxCell id="zkfFHV4jXpPFQw0GAbJ--17" value="Bounds" style="swimlane;fontStyle=0;align=center;verticalAlign=top;childLayout=stackLayout;horizontal=1;startSize=26;horizontalStack=0;resizeParent=1;resizeLast=0;collapsible=1;marginBottom=0;rounded=0;shadow=0;strokeWidth=1;fillColor=none;" parent="WIyWlLk6GJQsqaUBKTNV-1" vertex="1">
          <mxGeometry x="-200" y="-2170" width="160" height="130" as="geometry">
            <mxRectangle x="508" y="120" width="160" height="26" as="alternateBounds" />
          </mxGeometry>
        </mxCell>
        <mxCell id="0sjL9ywvOhM1zj3qhhSV-35" value="- x: number" style="text;strokeColor=none;fillColor=none;align=left;verticalAlign=top;spacingLeft=4;spacingRight=4;overflow=hidden;rotatable=0;points=[[0,0.5],[1,0.5]];portConstraint=eastwest;shadow=0;" parent="zkfFHV4jXpPFQw0GAbJ--17" vertex="1">
          <mxGeometry y="26" width="160" height="26" as="geometry" />
        </mxCell>
        <mxCell id="0sjL9ywvOhM1zj3qhhSV-36" value="- y: number" style="text;strokeColor=none;fillColor=none;align=left;verticalAlign=top;spacingLeft=4;spacingRight=4;overflow=hidden;rotatable=0;points=[[0,0.5],[1,0.5]];portConstraint=eastwest;shadow=0;" parent="zkfFHV4jXpPFQw0GAbJ--17" vertex="1">
          <mxGeometry y="52" width="160" height="26" as="geometry" />
        </mxCell>
        <mxCell id="0sjL9ywvOhM1zj3qhhSV-37" value="- width: number" style="text;strokeColor=none;fillColor=none;align=left;verticalAlign=top;spacingLeft=4;spacingRight=4;overflow=hidden;rotatable=0;points=[[0,0.5],[1,0.5]];portConstraint=eastwest;shadow=0;" parent="zkfFHV4jXpPFQw0GAbJ--17" vertex="1">
          <mxGeometry y="78" width="160" height="26" as="geometry" />
        </mxCell>
        <mxCell id="0sjL9ywvOhM1zj3qhhSV-38" value="- height: number" style="text;strokeColor=none;fillColor=none;align=left;verticalAlign=top;spacingLeft=4;spacingRight=4;overflow=hidden;rotatable=0;points=[[0,0.5],[1,0.5]];portConstraint=eastwest;shadow=0;" parent="zkfFHV4jXpPFQw0GAbJ--17" vertex="1">
          <mxGeometry y="104" width="160" height="26" as="geometry" />
        </mxCell>
        <mxCell id="c_oKNNHpZlxhWvdRLZM5-3" value="Flow" style="swimlane;fontStyle=0;childLayout=stackLayout;horizontal=1;startSize=26;fillColor=none;horizontalStack=0;resizeParent=1;resizeParentMax=0;resizeLast=0;collapsible=1;marginBottom=0;shadow=0;" parent="WIyWlLk6GJQsqaUBKTNV-1" vertex="1">
          <mxGeometry x="-698.5" y="-1190" width="158" height="160" as="geometry" />
        </mxCell>
        <mxCell id="c_oKNNHpZlxhWvdRLZM5-4" value="- id: string" style="text;strokeColor=none;fillColor=none;align=left;verticalAlign=top;spacingLeft=4;spacingRight=4;overflow=hidden;rotatable=0;points=[[0,0.5],[1,0.5]];portConstraint=eastwest;shadow=0;" parent="c_oKNNHpZlxhWvdRLZM5-3" vertex="1">
          <mxGeometry y="26" width="158" height="30" as="geometry" />
        </mxCell>
        <mxCell id="c_oKNNHpZlxhWvdRLZM5-5" value="- name: string" style="text;strokeColor=none;fillColor=none;align=left;verticalAlign=top;spacingLeft=4;spacingRight=4;overflow=hidden;rotatable=0;points=[[0,0.5],[1,0.5]];portConstraint=eastwest;shadow=0;" parent="c_oKNNHpZlxhWvdRLZM5-3" vertex="1">
          <mxGeometry y="56" width="158" height="26" as="geometry" />
        </mxCell>
        <mxCell id="c_oKNNHpZlxhWvdRLZM5-6" value="- sourceRefId: string" style="text;strokeColor=none;fillColor=none;align=left;verticalAlign=top;spacingLeft=4;spacingRight=4;overflow=hidden;rotatable=0;points=[[0,0.5],[1,0.5]];portConstraint=eastwest;shadow=0;" parent="c_oKNNHpZlxhWvdRLZM5-3" vertex="1">
          <mxGeometry y="82" width="158" height="26" as="geometry" />
        </mxCell>
        <mxCell id="c_oKNNHpZlxhWvdRLZM5-7" value="- targetRefId: string" style="text;strokeColor=none;fillColor=none;align=left;verticalAlign=top;spacingLeft=4;spacingRight=4;overflow=hidden;rotatable=0;points=[[0,0.5],[1,0.5]];portConstraint=eastwest;shadow=0;" parent="c_oKNNHpZlxhWvdRLZM5-3" vertex="1">
          <mxGeometry y="108" width="158" height="26" as="geometry" />
        </mxCell>
        <mxCell id="c_oKNNHpZlxhWvdRLZM5-8" value="- kind: FlowKind" style="text;strokeColor=none;fillColor=none;align=left;verticalAlign=top;spacingLeft=4;spacingRight=4;overflow=hidden;rotatable=0;points=[[0,0.5],[1,0.5]];portConstraint=eastwest;shadow=0;" parent="c_oKNNHpZlxhWvdRLZM5-3" vertex="1">
          <mxGeometry y="134" width="158" height="26" as="geometry" />
        </mxCell>
        <mxCell id="0sjL9ywvOhM1zj3qhhSV-18" value="SequenceFlow" style="swimlane;fontStyle=0;childLayout=stackLayout;horizontal=1;startSize=26;fillColor=none;horizontalStack=0;resizeParent=1;resizeParentMax=0;resizeLast=0;collapsible=1;marginBottom=0;shadow=0;" parent="WIyWlLk6GJQsqaUBKTNV-1" vertex="1">
          <mxGeometry x="-1050" y="-990" width="263" height="52" as="geometry" />
        </mxCell>
        <mxCell id="kIvDjQpewUcBJA9TdNjF-0" value="- sequenceFlowKind: SequenceFlowKind" style="text;strokeColor=none;fillColor=none;align=left;verticalAlign=top;spacingLeft=4;spacingRight=4;overflow=hidden;rotatable=0;points=[[0,0.5],[1,0.5]];portConstraint=eastwest;shadow=0;" parent="0sjL9ywvOhM1zj3qhhSV-18" vertex="1">
          <mxGeometry y="26" width="263" height="26" as="geometry" />
        </mxCell>
        <mxCell id="kIvDjQpewUcBJA9TdNjF-2" value="SequenceFlowKind" style="swimlane;fontStyle=1;childLayout=stackLayout;horizontal=1;startSize=26;fillColor=none;horizontalStack=0;resizeParent=1;resizeParentMax=0;resizeLast=0;collapsible=1;marginBottom=0;swimlaneLine=0;rounded=0;shadow=0;comic=0;glass=0;" parent="WIyWlLk6GJQsqaUBKTNV-1" vertex="1">
          <mxGeometry x="-997" y="-860" width="157" height="30" as="geometry" />
        </mxCell>
        <mxCell id="3JoKrsNmHiWk_ACY0eKF-6" value="MessageVisibleKind" style="swimlane;fontStyle=1;childLayout=stackLayout;horizontal=1;startSize=26;fillColor=none;horizontalStack=0;resizeParent=1;resizeParentMax=0;resizeLast=0;collapsible=1;marginBottom=0;swimlaneLine=0;rounded=0;shadow=0;comic=0;glass=0;" parent="WIyWlLk6GJQsqaUBKTNV-1" vertex="1">
          <mxGeometry x="-261.82" y="-1380" width="157" height="30" as="geometry" />
        </mxCell>
        <mxCell id="0sjL9ywvOhM1zj3qhhSV-6" value="Waypoint" style="swimlane;fontStyle=0;childLayout=stackLayout;horizontal=1;startSize=26;fillColor=none;horizontalStack=0;resizeParent=1;resizeParentMax=0;resizeLast=0;collapsible=1;marginBottom=0;shadow=0;" parent="WIyWlLk6GJQsqaUBKTNV-1" vertex="1">
          <mxGeometry x="-1079" y="-1416" width="159" height="78" as="geometry" />
        </mxCell>
        <mxCell id="0sjL9ywvOhM1zj3qhhSV-44" value="- x: number" style="text;strokeColor=none;fillColor=none;align=left;verticalAlign=top;spacingLeft=4;spacingRight=4;overflow=hidden;rotatable=0;points=[[0,0.5],[1,0.5]];portConstraint=eastwest;shadow=0;" parent="0sjL9ywvOhM1zj3qhhSV-6" vertex="1">
          <mxGeometry y="26" width="159" height="26" as="geometry" />
        </mxCell>
        <mxCell id="0sjL9ywvOhM1zj3qhhSV-45" value="- y: number" style="text;strokeColor=none;fillColor=none;align=left;verticalAlign=top;spacingLeft=4;spacingRight=4;overflow=hidden;rotatable=0;points=[[0,0.5],[1,0.5]];portConstraint=eastwest;shadow=0;" parent="0sjL9ywvOhM1zj3qhhSV-6" vertex="1">
          <mxGeometry y="52" width="159" height="26" as="geometry" />
        </mxCell>
        <mxCell id="3JoKrsNmHiWk_ACY0eKF-7" value="" style="endArrow=none;html=1;edgeStyle=orthogonalEdgeStyle;shadow=0;" parent="WIyWlLk6GJQsqaUBKTNV-1" source="3JoKrsNmHiWk_ACY0eKF-6" target="0sjL9ywvOhM1zj3qhhSV-2" edge="1">
          <mxGeometry relative="1" as="geometry">
            <mxPoint x="-237" y="-1064" as="sourcePoint" />
            <mxPoint x="-1388" y="-873.9999999999998" as="targetPoint" />
            <Array as="points">
              <mxPoint x="-330" y="-1365" />
              <mxPoint x="-330" y="-1365" />
            </Array>
          </mxGeometry>
        </mxCell>
        <mxCell id="3JoKrsNmHiWk_ACY0eKF-8" value="1" style="resizable=0;html=1;align=left;verticalAlign=bottom;labelBackgroundColor=#ffffff;fontSize=10;shadow=0;" parent="3JoKrsNmHiWk_ACY0eKF-7" connectable="0" vertex="1">
          <mxGeometry x="-1" relative="1" as="geometry">
            <mxPoint x="-20" y="22" as="offset" />
          </mxGeometry>
        </mxCell>
        <mxCell id="3JoKrsNmHiWk_ACY0eKF-10" value="" style="endArrow=none;html=1;edgeStyle=orthogonalEdgeStyle;shadow=0;" parent="WIyWlLk6GJQsqaUBKTNV-1" source="3JoKrsNmHiWk_ACY0eKF-9" target="c_oKNNHpZlxhWvdRLZM5-3" edge="1">
          <mxGeometry relative="1" as="geometry">
            <mxPoint x="-1691.5" y="-651" as="sourcePoint" />
            <mxPoint x="-1765.5" y="-774" as="targetPoint" />
            <Array as="points">
              <mxPoint x="-920" y="-1160" />
            </Array>
          </mxGeometry>
        </mxCell>
        <mxCell id="3JoKrsNmHiWk_ACY0eKF-11" value="1" style="resizable=0;html=1;align=left;verticalAlign=bottom;labelBackgroundColor=#ffffff;fontSize=10;shadow=0;" parent="3JoKrsNmHiWk_ACY0eKF-10" connectable="0" vertex="1">
          <mxGeometry x="-1" relative="1" as="geometry">
            <mxPoint x="7" y="20" as="offset" />
          </mxGeometry>
        </mxCell>
        <mxCell id="3JoKrsNmHiWk_ACY0eKF-9" value="FlowKind" style="swimlane;fontStyle=1;childLayout=stackLayout;horizontal=1;startSize=26;fillColor=none;horizontalStack=0;resizeParent=1;resizeParentMax=0;resizeLast=0;collapsible=1;marginBottom=0;swimlaneLine=0;rounded=0;shadow=0;comic=0;glass=0;" parent="WIyWlLk6GJQsqaUBKTNV-1" vertex="1">
          <mxGeometry x="-960" y="-1230" width="83" height="30" as="geometry" />
        </mxCell>
        <mxCell id="c_oKNNHpZlxhWvdRLZM5-10" value="AssociationFlow" style="swimlane;fontStyle=0;childLayout=stackLayout;horizontal=1;startSize=26;fillColor=none;horizontalStack=0;resizeParent=1;resizeParentMax=0;resizeLast=0;collapsible=1;marginBottom=0;shadow=0;" parent="WIyWlLk6GJQsqaUBKTNV-1" vertex="1">
          <mxGeometry x="-381.93" y="-990" width="304.62" height="52" as="geometry">
            <mxRectangle x="-307.62" y="-990" width="130" height="30" as="alternateBounds" />
          </mxGeometry>
        </mxCell>
        <mxCell id="6q-mW2nUJWW9OVgqkLjB-6" value="- associationDirectionKind: AssociationDirectionKind" style="text;strokeColor=none;fillColor=none;align=left;verticalAlign=top;spacingLeft=4;spacingRight=4;overflow=hidden;rotatable=0;points=[[0,0.5],[1,0.5]];portConstraint=eastwest;shadow=0;" vertex="1" parent="c_oKNNHpZlxhWvdRLZM5-10">
          <mxGeometry y="26" width="304.62" height="26" as="geometry" />
        </mxCell>
        <mxCell id="1z3uorkU8VwsGr5pz4gU-0" value="Extends" style="endArrow=block;endSize=16;endFill=0;html=1;shadow=0;edgeStyle=orthogonalEdgeStyle;" parent="WIyWlLk6GJQsqaUBKTNV-1" source="1z3uorkU8VwsGr5pz4gU-1" target="c_oKNNHpZlxhWvdRLZM5-3" edge="1">
          <mxGeometry x="-0.0064" y="20" width="160" relative="1" as="geometry">
            <mxPoint x="-325" y="-1220" as="sourcePoint" />
            <mxPoint x="-531.5" y="-1118" as="targetPoint" />
            <Array as="points">
              <mxPoint x="-222" y="-1160" />
            </Array>
            <mxPoint as="offset" />
          </mxGeometry>
        </mxCell>
        <mxCell id="1z3uorkU8VwsGr5pz4gU-1" value="MessageFlow" style="swimlane;fontStyle=0;childLayout=stackLayout;horizontal=1;startSize=26;fillColor=none;horizontalStack=0;resizeParent=1;resizeParentMax=0;resizeLast=0;collapsible=1;marginBottom=0;shadow=0;" parent="WIyWlLk6GJQsqaUBKTNV-1" vertex="1">
          <mxGeometry x="-307.62" y="-1241" width="156" height="52" as="geometry" />
        </mxCell>
        <mxCell id="1z3uorkU8VwsGr5pz4gU-2" value="" style="endArrow=none;html=1;edgeStyle=orthogonalEdgeStyle;shadow=0;" parent="WIyWlLk6GJQsqaUBKTNV-1" source="c_oKNNHpZlxhWvdRLZM5-10" target="1z3uorkU8VwsGr5pz4gU-4" edge="1">
          <mxGeometry relative="1" as="geometry">
            <mxPoint x="-620.5" y="-938" as="sourcePoint" />
            <mxPoint x="-620.5" y="-872" as="targetPoint" />
            <Array as="points" />
          </mxGeometry>
        </mxCell>
        <mxCell id="1z3uorkU8VwsGr5pz4gU-3" value="1" style="resizable=0;html=1;align=left;verticalAlign=bottom;labelBackgroundColor=#ffffff;fontSize=10;shadow=0;" parent="1z3uorkU8VwsGr5pz4gU-2" connectable="0" vertex="1">
          <mxGeometry x="-1" relative="1" as="geometry">
            <mxPoint x="-20" y="68" as="offset" />
          </mxGeometry>
        </mxCell>
        <mxCell id="1z3uorkU8VwsGr5pz4gU-4" value="AssociationDirectionKind" style="swimlane;fontStyle=1;childLayout=stackLayout;horizontal=1;startSize=26;fillColor=none;horizontalStack=0;resizeParent=1;resizeParentMax=0;resizeLast=0;collapsible=1;marginBottom=0;swimlaneLine=0;rounded=0;shadow=0;comic=0;glass=0;" parent="WIyWlLk6GJQsqaUBKTNV-1" vertex="1">
          <mxGeometry x="-326.62" y="-860" width="194" height="30" as="geometry" />
        </mxCell>
        <mxCell id="BIo8F9uWutNUxzR1bWVP-2" value="" style="endArrow=none;html=1;edgeStyle=orthogonalEdgeStyle;shadow=0;" parent="WIyWlLk6GJQsqaUBKTNV-1" source="BIo8F9uWutNUxzR1bWVP-1" target="vmLdbWMzX00juD9bsbE4-1" edge="1">
          <mxGeometry relative="1" as="geometry">
            <mxPoint x="-870" y="-2750" as="sourcePoint" />
            <mxPoint x="-232.87" y="-415" as="targetPoint" />
            <Array as="points" />
          </mxGeometry>
        </mxCell>
        <mxCell id="BIo8F9uWutNUxzR1bWVP-3" value="&lt;div&gt;0..3&lt;/div&gt;" style="resizable=0;html=1;align=left;verticalAlign=bottom;labelBackgroundColor=#ffffff;fontSize=10;shadow=0;" parent="BIo8F9uWutNUxzR1bWVP-2" connectable="0" vertex="1">
          <mxGeometry x="-1" relative="1" as="geometry">
            <mxPoint x="8" y="20" as="offset" />
          </mxGeometry>
        </mxCell>
        <mxCell id="bgp1F87hh6HLPxp8cGTV-2" value="ShapeBpmnEvent" style="swimlane;fontStyle=0;childLayout=stackLayout;horizontal=1;startSize=26;fillColor=none;horizontalStack=0;resizeParent=1;resizeParentMax=0;resizeLast=0;collapsible=1;marginBottom=0;shadow=0;" parent="WIyWlLk6GJQsqaUBKTNV-1" vertex="1">
          <mxGeometry x="-734" y="-3090" width="300" height="52" as="geometry" />
        </mxCell>
        <mxCell id="bgp1F87hh6HLPxp8cGTV-3" value="- eventDefinitionKind: ShapeBpmnEventDefinitionKind" style="text;strokeColor=none;fillColor=none;align=left;verticalAlign=top;spacingLeft=4;spacingRight=4;overflow=hidden;rotatable=0;points=[[0,0.5],[1,0.5]];portConstraint=eastwest;shadow=0;" parent="bgp1F87hh6HLPxp8cGTV-2" vertex="1">
          <mxGeometry y="26" width="300" height="26" as="geometry" />
        </mxCell>
        <mxCell id="bgp1F87hh6HLPxp8cGTV-11" value="ShapeBpmnEventDefinitionKind" style="swimlane;fontStyle=1;childLayout=stackLayout;horizontal=1;startSize=26;fillColor=none;horizontalStack=0;resizeParent=1;resizeParentMax=0;resizeLast=0;collapsible=1;marginBottom=0;swimlaneLine=0;rounded=0;shadow=0;comic=0;glass=0;" parent="WIyWlLk6GJQsqaUBKTNV-1" vertex="1">
          <mxGeometry x="-280" y="-2979" width="196.5" height="30" as="geometry" />
        </mxCell>
        <mxCell id="BIo8F9uWutNUxzR1bWVP-1" value="ShapeBpmnMarkerKind" style="swimlane;fontStyle=1;childLayout=stackLayout;horizontal=1;startSize=26;fillColor=none;horizontalStack=0;resizeParent=1;resizeParentMax=0;resizeLast=0;collapsible=1;marginBottom=0;swimlaneLine=0;rounded=0;shadow=0;comic=0;glass=0;" parent="WIyWlLk6GJQsqaUBKTNV-1" vertex="1">
          <mxGeometry x="-1002.12" y="-2750" width="191.75" height="30" as="geometry" />
        </mxCell>
        <mxCell id="vmLdbWMzX00juD9bsbE4-10" value="Extends" style="endArrow=block;endSize=16;endFill=0;html=1;shadow=0;edgeStyle=orthogonalEdgeStyle;" parent="WIyWlLk6GJQsqaUBKTNV-1" source="UfOXiXSs-xiothV765re-0" target="vmLdbWMzX00juD9bsbE4-1" edge="1">
          <mxGeometry x="-0.1148" y="-20" width="160" relative="1" as="geometry">
            <mxPoint x="-333.0477348066301" y="-677" as="sourcePoint" />
            <mxPoint x="-333.3667955801106" y="-600" as="targetPoint" />
            <Array as="points">
              <mxPoint x="-637" y="-2480" />
              <mxPoint x="-840" y="-2480" />
            </Array>
            <mxPoint as="offset" />
          </mxGeometry>
        </mxCell>
        <mxCell id="vmLdbWMzX00juD9bsbE4-1" value="ShapeBpmnActivity" style="swimlane;fontStyle=0;childLayout=stackLayout;horizontal=1;startSize=26;fillColor=none;horizontalStack=0;resizeParent=1;resizeParentMax=0;resizeLast=0;collapsible=1;marginBottom=0;shadow=0;" parent="WIyWlLk6GJQsqaUBKTNV-1" vertex="1">
          <mxGeometry x="-1020" y="-2662" width="227.5" height="52" as="geometry" />
        </mxCell>
        <mxCell id="BIo8F9uWutNUxzR1bWVP-0" value="- markers?: ShapeBpmnMarkerKind[] = []" style="text;strokeColor=none;fillColor=none;align=left;verticalAlign=top;spacingLeft=4;spacingRight=4;overflow=hidden;rotatable=0;points=[[0,0.5],[1,0.5]];portConstraint=eastwest;shadow=0;" parent="vmLdbWMzX00juD9bsbE4-1" vertex="1">
          <mxGeometry y="26" width="227.5" height="26" as="geometry" />
        </mxCell>
        <mxCell id="vmLdbWMzX00juD9bsbE4-8" value="ShapeBpmnCallActivity" style="swimlane;fontStyle=0;childLayout=stackLayout;horizontal=1;startSize=26;fillColor=none;horizontalStack=0;resizeParent=1;resizeParentMax=0;resizeLast=0;collapsible=1;marginBottom=0;shadow=0;" parent="WIyWlLk6GJQsqaUBKTNV-1" vertex="1">
          <mxGeometry x="-1130" y="-2446" width="272.5" height="78" as="geometry" />
        </mxCell>
        <mxCell id="MK7_B1bnEwAEvDmB1FFe-0" value="- callActivityKind: ShapeBpmnCallActivityKind" style="text;strokeColor=none;fillColor=none;align=left;verticalAlign=top;spacingLeft=4;spacingRight=4;overflow=hidden;rotatable=0;points=[[0,0.5],[1,0.5]];portConstraint=eastwest;shadow=0;" parent="vmLdbWMzX00juD9bsbE4-8" vertex="1">
          <mxGeometry y="26" width="272.5" height="26" as="geometry" />
        </mxCell>
        <mxCell id="vmLdbWMzX00juD9bsbE4-9" value="- globalTaskKind?: GlobalTaskKind" style="text;strokeColor=none;fillColor=none;align=left;verticalAlign=top;spacingLeft=4;spacingRight=4;overflow=hidden;rotatable=0;points=[[0,0.5],[1,0.5]];portConstraint=eastwest;shadow=0;" parent="vmLdbWMzX00juD9bsbE4-8" vertex="1">
          <mxGeometry y="52" width="272.5" height="26" as="geometry" />
        </mxCell>
        <mxCell id="0sjL9ywvOhM1zj3qhhSV-14" value="ShapeBpmnElementKind" style="swimlane;fontStyle=1;childLayout=stackLayout;horizontal=1;startSize=26;fillColor=none;horizontalStack=0;resizeParent=1;resizeParentMax=0;resizeLast=0;collapsible=1;marginBottom=0;swimlaneLine=0;rounded=0;shadow=0;comic=0;glass=0;" parent="WIyWlLk6GJQsqaUBKTNV-1" vertex="1">
          <mxGeometry x="-1004.74" y="-2850" width="197" height="30" as="geometry" />
        </mxCell>
        <mxCell id="vmLdbWMzX00juD9bsbE4-11" value="ShapeBpmnCallActivityKind" style="swimlane;fontStyle=1;childLayout=stackLayout;horizontal=1;startSize=26;fillColor=none;horizontalStack=0;resizeParent=1;resizeParentMax=0;resizeLast=0;collapsible=1;marginBottom=0;swimlaneLine=0;rounded=0;shadow=0;comic=0;glass=0;" parent="WIyWlLk6GJQsqaUBKTNV-1" vertex="1">
          <mxGeometry x="-1098.3799999999999" y="-2320" width="209.25" height="30" as="geometry" />
        </mxCell>
        <mxCell id="vmLdbWMzX00juD9bsbE4-12" value="" style="endArrow=none;html=1;shadow=0;" parent="WIyWlLk6GJQsqaUBKTNV-1" source="vmLdbWMzX00juD9bsbE4-11" target="vmLdbWMzX00juD9bsbE4-8" edge="1">
          <mxGeometry relative="1" as="geometry">
            <mxPoint x="-50.120000000000005" y="-772" as="sourcePoint" />
            <mxPoint x="-202.12" y="-772" as="targetPoint" />
          </mxGeometry>
        </mxCell>
        <mxCell id="vmLdbWMzX00juD9bsbE4-13" value="1" style="resizable=0;html=1;align=left;verticalAlign=bottom;labelBackgroundColor=#ffffff;fontSize=10;shadow=0;" parent="vmLdbWMzX00juD9bsbE4-12" connectable="0" vertex="1">
          <mxGeometry x="-1" relative="1" as="geometry">
            <mxPoint x="-15" y="-10" as="offset" />
          </mxGeometry>
        </mxCell>
        <mxCell id="bgp1F87hh6HLPxp8cGTV-7" value="ShapeBpmnBoundaryEvent" style="swimlane;fontStyle=0;childLayout=stackLayout;horizontal=1;startSize=26;fillColor=none;horizontalStack=0;resizeParent=1;resizeParentMax=0;resizeLast=0;collapsible=1;marginBottom=0;shadow=0;" parent="WIyWlLk6GJQsqaUBKTNV-1" vertex="1">
          <mxGeometry x="-1032.25" y="-2990" width="192" height="52" as="geometry" />
        </mxCell>
        <mxCell id="bgp1F87hh6HLPxp8cGTV-8" value="- isInterrupting?: boolean = true" style="text;strokeColor=none;fillColor=none;align=left;verticalAlign=top;spacingLeft=4;spacingRight=4;overflow=hidden;rotatable=0;points=[[0,0.5],[1,0.5]];portConstraint=eastwest;shadow=0;" parent="bgp1F87hh6HLPxp8cGTV-7" vertex="1">
          <mxGeometry y="26" width="192" height="26" as="geometry" />
        </mxCell>
        <mxCell id="5jXRLhcHuSpQMxQYhV9y-0" value="ShapeBpmnStartEvent" style="swimlane;fontStyle=0;childLayout=stackLayout;horizontal=1;startSize=26;fillColor=none;horizontalStack=0;resizeParent=1;resizeParentMax=0;resizeLast=0;collapsible=1;marginBottom=0;shadow=0;" parent="WIyWlLk6GJQsqaUBKTNV-1" vertex="1">
          <mxGeometry x="-1032.25" y="-3170" width="192" height="52" as="geometry" />
        </mxCell>
        <mxCell id="5jXRLhcHuSpQMxQYhV9y-1" value="- isInterrupting?: boolean" style="text;strokeColor=none;fillColor=none;align=left;verticalAlign=top;spacingLeft=4;spacingRight=4;overflow=hidden;rotatable=0;points=[[0,0.5],[1,0.5]];portConstraint=eastwest;shadow=0;" parent="5jXRLhcHuSpQMxQYhV9y-0" vertex="1">
          <mxGeometry y="26" width="192" height="26" as="geometry" />
        </mxCell>
        <mxCell id="5jXRLhcHuSpQMxQYhV9y-2" value="Extends" style="endArrow=block;endSize=16;endFill=0;html=1;shadow=0;edgeStyle=orthogonalEdgeStyle;" parent="WIyWlLk6GJQsqaUBKTNV-1" source="bgp1F87hh6HLPxp8cGTV-7" target="bgp1F87hh6HLPxp8cGTV-2" edge="1">
          <mxGeometry x="-0.2296" y="16" width="160" relative="1" as="geometry">
            <mxPoint x="409.3199999999999" y="-500" as="sourcePoint" />
            <mxPoint x="160.00000000000017" y="-439.5039999999999" as="targetPoint" />
            <Array as="points">
              <mxPoint x="-680" y="-2964" />
            </Array>
            <mxPoint as="offset" />
          </mxGeometry>
        </mxCell>
        <mxCell id="8UgByCunfus-ryNXjnUl-0" value="ShapeBpmnEventBasedGateway" style="swimlane;fontStyle=0;childLayout=stackLayout;horizontal=1;startSize=26;fillColor=none;horizontalStack=0;resizeParent=1;resizeParentMax=0;resizeLast=0;collapsible=1;marginBottom=0;shadow=0;" parent="WIyWlLk6GJQsqaUBKTNV-1" vertex="1">
          <mxGeometry x="-370" y="-2740" width="353.38" height="52" as="geometry" />
        </mxCell>
        <mxCell id="8UgByCunfus-ryNXjnUl-1" value="- gatewayKind?: ShapeBpmnEventBasedGatewayKind" style="text;strokeColor=none;fillColor=none;align=left;verticalAlign=top;spacingLeft=4;spacingRight=4;overflow=hidden;rotatable=0;points=[[0,0.5],[1,0.5]];portConstraint=eastwest;shadow=0;" parent="8UgByCunfus-ryNXjnUl-0" vertex="1">
          <mxGeometry y="26" width="353.38" height="26" as="geometry" />
        </mxCell>
        <mxCell id="8UgByCunfus-ryNXjnUl-2" value="ShapeBpmnEventBasedGatewayKind" style="swimlane;fontStyle=1;childLayout=stackLayout;horizontal=1;startSize=26;fillColor=none;horizontalStack=0;resizeParent=1;resizeParentMax=0;resizeLast=0;collapsible=1;marginBottom=0;swimlaneLine=0;rounded=0;shadow=0;comic=0;glass=0;" parent="WIyWlLk6GJQsqaUBKTNV-1" vertex="1">
          <mxGeometry x="-325.7399999999998" y="-2830" width="264.87" height="30" as="geometry" />
        </mxCell>
        <mxCell id="8UgByCunfus-ryNXjnUl-3" value="" style="endArrow=none;html=1;shadow=0;" parent="WIyWlLk6GJQsqaUBKTNV-1" source="8UgByCunfus-ryNXjnUl-2" target="8UgByCunfus-ryNXjnUl-0" edge="1">
          <mxGeometry relative="1" as="geometry">
            <mxPoint x="-296.62" y="-38" as="sourcePoint" />
            <mxPoint x="270.76" y="-615" as="targetPoint" />
          </mxGeometry>
        </mxCell>
        <mxCell id="8UgByCunfus-ryNXjnUl-4" value="1" style="resizable=0;html=1;align=left;verticalAlign=bottom;labelBackgroundColor=#ffffff;fontSize=10;shadow=0;" parent="8UgByCunfus-ryNXjnUl-3" connectable="0" vertex="1">
          <mxGeometry x="-1" relative="1" as="geometry">
            <mxPoint x="-18" y="20" as="offset" />
          </mxGeometry>
        </mxCell>
        <mxCell id="8UgByCunfus-ryNXjnUl-7" value="Extends" style="endArrow=block;endSize=16;endFill=0;html=1;shadow=0;" parent="WIyWlLk6GJQsqaUBKTNV-1" source="vmLdbWMzX00juD9bsbE4-1" target="0sjL9ywvOhM1zj3qhhSV-10" edge="1">
          <mxGeometry x="-0.1026" y="14" width="160" relative="1" as="geometry">
            <mxPoint x="-338.87000000000035" y="-536" as="sourcePoint" />
            <mxPoint x="-333.5" y="-500" as="targetPoint" />
            <mxPoint as="offset" />
          </mxGeometry>
        </mxCell>
        <mxCell id="8UgByCunfus-ryNXjnUl-8" value="Extends" style="endArrow=block;endSize=16;endFill=0;html=1;shadow=0;edgeStyle=orthogonalEdgeStyle;" parent="WIyWlLk6GJQsqaUBKTNV-1" source="8UgByCunfus-ryNXjnUl-0" target="0sjL9ywvOhM1zj3qhhSV-10" edge="1">
          <mxGeometry x="-0.1683" y="-14" width="160" relative="1" as="geometry">
            <mxPoint x="-98.5" y="-498" as="sourcePoint" />
            <mxPoint x="-239.53799999999978" y="-447.5319999999999" as="targetPoint" />
            <mxPoint as="offset" />
            <Array as="points">
              <mxPoint x="-193" y="-2636" />
            </Array>
          </mxGeometry>
        </mxCell>
        <mxCell id="BaRzC9VioB_bW7rK_CGJ-0" value="ShapeBpmnSubProcessKind" style="swimlane;fontStyle=1;childLayout=stackLayout;horizontal=1;startSize=26;fillColor=none;horizontalStack=0;resizeParent=1;resizeParentMax=0;resizeLast=0;collapsible=1;marginBottom=0;swimlaneLine=0;rounded=0;shadow=0;comic=0;glass=0;" parent="WIyWlLk6GJQsqaUBKTNV-1" vertex="1">
          <mxGeometry x="-745" y="-2320" width="215" height="30" as="geometry" />
        </mxCell>
        <mxCell id="D1D5btmag1E3cIUV-N96-7" style="rounded=1;orthogonalLoop=0;jettySize=auto;html=1;endSize=16;endFill=0;endArrow=block;edgeStyle=orthogonalEdgeStyle;" parent="WIyWlLk6GJQsqaUBKTNV-1" source="D1D5btmag1E3cIUV-N96-2" target="bgp1F87hh6HLPxp8cGTV-2" edge="1">
          <mxGeometry relative="1" as="geometry">
            <Array as="points">
              <mxPoint x="-172" y="-3070" />
            </Array>
          </mxGeometry>
        </mxCell>
        <mxCell id="4" value="Extends" style="edgeLabel;html=1;align=center;verticalAlign=middle;resizable=0;points=[];" parent="D1D5btmag1E3cIUV-N96-7" vertex="1" connectable="0">
          <mxGeometry x="0.1212" y="1" relative="1" as="geometry">
            <mxPoint x="1" y="9" as="offset" />
          </mxGeometry>
        </mxCell>
        <mxCell id="D1D5btmag1E3cIUV-N96-2" value="ShapeBpmnIntermediateCatchEvent" style="swimlane;fontStyle=0;childLayout=stackLayout;horizontal=1;startSize=26;fillColor=none;horizontalStack=0;resizeParent=1;resizeParentMax=0;resizeLast=0;collapsible=1;marginBottom=0;shadow=0;" parent="WIyWlLk6GJQsqaUBKTNV-1" vertex="1">
          <mxGeometry x="-322.5" y="-3170" width="300" height="52" as="geometry" />
        </mxCell>
        <mxCell id="D1D5btmag1E3cIUV-N96-3" value="- sourceIds?: string[] = []" style="text;strokeColor=none;fillColor=none;align=left;verticalAlign=top;spacingLeft=4;spacingRight=4;overflow=hidden;rotatable=0;points=[[0,0.5],[1,0.5]];portConstraint=eastwest;shadow=0;" parent="D1D5btmag1E3cIUV-N96-2" vertex="1">
          <mxGeometry y="26" width="300" height="26" as="geometry" />
        </mxCell>
        <mxCell id="D1D5btmag1E3cIUV-N96-8" style="rounded=1;orthogonalLoop=0;jettySize=auto;html=1;endSize=16;endFill=0;endArrow=block;edgeStyle=orthogonalEdgeStyle;" parent="WIyWlLk6GJQsqaUBKTNV-1" source="D1D5btmag1E3cIUV-N96-5" target="bgp1F87hh6HLPxp8cGTV-2" edge="1">
          <mxGeometry relative="1" as="geometry">
            <Array as="points">
              <mxPoint x="-584" y="-3150" />
              <mxPoint x="-584" y="-3150" />
            </Array>
          </mxGeometry>
        </mxCell>
        <mxCell id="3" value="Extends" style="edgeLabel;html=1;align=center;verticalAlign=middle;resizable=0;points=[];" parent="D1D5btmag1E3cIUV-N96-8" vertex="1" connectable="0">
          <mxGeometry x="-0.2778" y="3" relative="1" as="geometry">
            <mxPoint x="23" as="offset" />
          </mxGeometry>
        </mxCell>
        <mxCell id="D1D5btmag1E3cIUV-N96-5" value="ShapeBpmnIntermediateThrowEvent" style="swimlane;fontStyle=0;childLayout=stackLayout;horizontal=1;startSize=26;fillColor=none;horizontalStack=0;resizeParent=1;resizeParentMax=0;resizeLast=0;collapsible=1;marginBottom=0;shadow=0;" parent="WIyWlLk6GJQsqaUBKTNV-1" vertex="1">
          <mxGeometry x="-734" y="-3250" width="300" height="52" as="geometry" />
        </mxCell>
        <mxCell id="D1D5btmag1E3cIUV-N96-6" value="- targetId?: string" style="text;strokeColor=none;fillColor=none;align=left;verticalAlign=top;spacingLeft=4;spacingRight=4;overflow=hidden;rotatable=0;points=[[0,0.5],[1,0.5]];portConstraint=eastwest;shadow=0;" parent="D1D5btmag1E3cIUV-N96-5" vertex="1">
          <mxGeometry y="26" width="300" height="26" as="geometry" />
        </mxCell>
        <mxCell id="UfOXiXSs-xiothV765re-0" value="ShapeBpmnSubProcess" style="swimlane;fontStyle=0;childLayout=stackLayout;horizontal=1;startSize=26;fillColor=none;horizontalStack=0;resizeParent=1;resizeParentMax=0;resizeLast=0;collapsible=1;marginBottom=0;shadow=0;" parent="WIyWlLk6GJQsqaUBKTNV-1" vertex="1">
          <mxGeometry x="-775" y="-2433" width="275" height="52" as="geometry" />
        </mxCell>
        <mxCell id="UfOXiXSs-xiothV765re-1" value="- subProcessKind: ShapeBpmnSubProcessKind" style="text;strokeColor=none;fillColor=none;align=left;verticalAlign=top;spacingLeft=4;spacingRight=4;overflow=hidden;rotatable=0;points=[[0,0.5],[1,0.5]];portConstraint=eastwest;shadow=0;" parent="UfOXiXSs-xiothV765re-0" vertex="1">
          <mxGeometry y="26" width="275" height="26" as="geometry" />
        </mxCell>
        <mxCell id="6q-mW2nUJWW9OVgqkLjB-8" value="" style="endArrow=none;html=1;shadow=0;edgeStyle=orthogonalEdgeStyle;" edge="1" parent="WIyWlLk6GJQsqaUBKTNV-1" source="0sjL9ywvOhM1zj3qhhSV-14" target="vmLdbWMzX00juD9bsbE4-8">
          <mxGeometry relative="1" as="geometry">
            <mxPoint x="-798" y="-2825" as="sourcePoint" />
            <mxPoint x="-620" y="-2730" as="targetPoint" />
            <Array as="points">
              <mxPoint x="-1090" y="-2835" />
            </Array>
          </mxGeometry>
        </mxCell>
        <mxCell id="6q-mW2nUJWW9OVgqkLjB-9" value="1" style="resizable=0;html=1;align=left;verticalAlign=bottom;labelBackgroundColor=#ffffff;fontSize=10;shadow=0;" connectable="0" vertex="1" parent="6q-mW2nUJWW9OVgqkLjB-8">
          <mxGeometry x="-1" relative="1" as="geometry">
            <mxPoint x="-15" y="25" as="offset" />
          </mxGeometry>
        </mxCell>
        <mxCell id="6q-mW2nUJWW9OVgqkLjB-11" value="&lt;span style=&quot;font-size: 12px; text-align: left; background-color: rgb(251, 251, 251);&quot;&gt;GlobalTaskKind&lt;/span&gt;" style="edgeLabel;html=1;align=center;verticalAlign=middle;resizable=0;points=[];" vertex="1" connectable="0" parent="6q-mW2nUJWW9OVgqkLjB-8">
          <mxGeometry x="-0.1513" y="-2" relative="1" as="geometry">
            <mxPoint as="offset" />
          </mxGeometry>
        </mxCell>
      </root>
    </mxGraphModel>
  </diagram>
</mxfile>
